<svg id="Layer_1" data-name="Layer 1" xmlns="http://www.w3.org/2000/svg" viewBox="0 0 1080 1080"><defs><style>.cls-1{fill:#ffcc03;}</style></defs><path class="cls-1" d="M534.83,461H384.67a82.07,82.07,0,0,1,140.55-16.3A81,81,0,0,1,534.83,461Z"/><path class="cls-1" d="M540,6.76C245.5,6.76,6.77,245.51,6.77,540S245.5,1073.24,540,1073.24,1073.23,834.5,1073.23,540,834.5,6.76,540,6.76ZM472.88,700.39l-.49,1.51q-6.27.39-12.65.38-9.53,0-18.83-.84c-103.65-9.29-185.41-94.57-189.16-199.75v0c-.09-2.5-.13-5-.13-7.5,0-3.57.09-7.1.27-10.62v0C257.38,374.38,346.9,287.41,457,286l1.8,0h.9A207.67,207.67,0,0,1,593.06,334.3L551.48,461l-9.73,29.64L531.45,522H382.51a82.08,82.08,0,0,0,71.14,54c1.26.09,2.53.17,3.8.18.76,0,1.52.05,2.29.05h53.89l-6.78,20.65ZM828.37,286,729.31,544l-12.38,32.22h88L524.6,960.48,609.13,703H510l1.56-4.76L517.22,681l15.94-48.55h0l18.44-56.21L556.93,560l12.49-38,55.09-167.79,15-45.59h0l2-6.15A28.33,28.33,0,0,1,667.18,286H828.4Z"/></svg>